<?xml version="1.0" encoding="utf-8"?>
<!-- Generator: Adobe Illustrator 28.1.0, SVG Export Plug-In . SVG Version: 6.00 Build 0)  -->
<svg version="1.1" id="Calque_1" xmlns="http://www.w3.org/2000/svg" xmlns:xlink="http://www.w3.org/1999/xlink" x="0px" y="0px"
	 viewBox="0 0 379.4 246.4" style="enable-background:new 0 0 379.4 246.4;" xml:space="preserve">
<style type="text/css">
	.st0{fill:#FFFFFF;}
</style>
<g>
	<path class="st0" d="M0,47.3c9.2,5,18.4,10,27.6,15C79.3,91.2,131,120,182.7,148.9c5,2.8,9.3,2.7,14.2,0
		c58.8-32.9,117.6-65.7,176.4-98.5c1.8-1,3.7-2,5.9-3.2c0.1,1.4,0.2,2.4,0.2,3.4c0,54.8,0,109.7,0,164.5c0,17.6-11.9,30.1-29.5,31.1
		c-1.2,0.1-2.5,0.1-3.7,0.1c-104.3,0-208.7,0-313,0.1c-10.6,0-20-2.8-26.4-11.5c-3-4.1-4.5-9.4-6.7-14.2C0,162.9,0,105.1,0,47.3z"/>
	<path class="st0" d="M189.8,0c52.6,0,105.2,0,157.8,0c14.8,0,26.2,8,30.4,20.8c0.8,2.5,0.6,3.9-1.9,5.3
		c-61.3,34.1-122.6,68.3-183.9,102.3c-1.3,0.7-3.6,0.6-4.9-0.1C125.8,94.3,64.6,60.1,3.2,26c-2.4-1.3-2.7-2.5-1.9-4.9
		c4-12.5,15.4-20.9,29.2-21c13-0.1,25.9,0,38.9,0C109.5,0,149.6,0,189.8,0z"/>
</g>
</svg>
