<?xml version="1.0" encoding="utf-8"?>
<!-- Generator: Adobe Illustrator 28.1.0, SVG Export Plug-In . SVG Version: 6.00 Build 0)  -->
<svg version="1.1" id="Calque_1" xmlns="http://www.w3.org/2000/svg" xmlns:xlink="http://www.w3.org/1999/xlink" x="0px" y="0px"
	 viewBox="0 0 171.3 231.2" style="enable-background:new 0 0 171.3 231.2;" xml:space="preserve">
<style type="text/css">
	.st0{fill:#FFFFFF;}
</style>
<g>
	<g transform="translate(0.000000,1280.000000) scale(0.100000,-0.100000)">
		<path class="st0" d="M563.1,12798.6l-5.2-2l1.1-33.8c0.5-18.4,1.4-66.9,2-107.7c3.2-248,9.6-453,15.4-494.3
			c2.2-15.2,5.4-18.1,20.2-18.1c29.8,0,79.4,23.5,106.5,50.4c16.3,16.3,37.2,40.8,40.3,47.2c1.8,3.4,2,24.6,0.9,94
			c-0.7,49.2-2.4,152.2-3.4,228.7c-2,139-2,139.2-6.1,148.4c-17.2,37.6-99.9,84.6-156.5,88.6
			C572.7,12800.2,565.9,12799.7,563.1,12798.6z"/>
		<path class="st0" d="M477.8,12795.7c-61.1-5.1-129.4-20.1-185.6-40.3c-30.6-11.2-82.4-37.4-108.8-55
			c-106.5-71.2-164.7-169-179.1-301.5c-4.9-44.8-5.1-51.9-3.1-93.6c1.3-22.4,3.1-60.2,4.2-84c15.4-351.2,85.5-672.7,192.5-883
			c18.8-37.2,38.9-70.1,79.2-130.1c131.9-196.3,234.4-325.7,345.4-436.5c124.7-124.3,238.8-203.5,358.1-248.5
			c73.6-27.7,161.2-40.5,224.9-32.9c52.4,6.3,174.1,44.5,259.4,81.2c48.4,21,133.9,66.3,135.9,72.3c0.5,1.6-519.3,411.7-524.4,413.7
			c-1.4,0.5-8.1-1.8-14.8-5.2c-18.4-9.2-44.5-18.4-64.9-23.1c-25.5-5.6-64.4-5.8-85.1-0.2c-29.8,8-53.3,21.7-75,43.7
			c-34,34.3-103.8,153.1-227.9,387.7c-92,173.7-196.3,379.2-202.8,399.1c-9,27.7-12.6,51.9-12.6,84.4c0,43.2,7.6,72.5,27.1,105.2
			c16.3,27.3,52.1,59.1,84.2,74.8c5.8,2.7,10.7,6,11,6.9c0.4,1.1-3.6,145.1-8.9,320.1s-9.6,324.4-9.6,332.2l-0.2,13.9l-5.8-0.4
			C487.8,12796.5,481.8,12796.1,477.8,12795.7z"/>
		<path class="st0" d="M1244,11174.4c-12.8-6.7-45.2-23.7-71.8-37.6c-26.6-13.9-48.1-26-48.1-27.1c0-1.5,523.8-418.4,536.5-427.1
			c3.4-2.3,4.2-0.7,15.5,34.3c14.5,44.1,35.4,112.4,36.7,119.5c2.2,12.7-12.1,45.5-26.9,61.6c-16.3,17.9-282,224.5-330.6,257.2
			c-26,17.5-52.4,28.2-75,30.4l-12.6,1.3L1244,11174.4z"/>
	</g>
</g>
</svg>
